# xmcd CD database file
#
# Track frame offsets:
#	150
#	24288
#	55949
#	74282
#	102595
#	125707
#	147046
#	174695
#	204376
#	221510
#
# Disc length: 3138 seconds
#
# Revision: 0
# Processed by: cddbd v1.5.2PL0 Copyright (c) Steve Scherf et al.
# Submitted via: CDex 1.70beta2
#
DISCID=940c400a
DTITLE=秋吉 敏子 - Toshiko Akiyoshi Solo Live 2004
DYEAR=2009
DGENRE=Jazz
TTITLE0=Long Yellow Road
TTITLE1=Day Dream
TTITLE2=After You've Gone
TTITLE3=Kanchororin Bushi
TTITLE4=Deep Rever
TTITLE5=We wish Upon A Star
TTITLE6=Central Park West
TTITLE7=Round About Midnight
TTITLE8=Hope
TTITLE9=Tico Tico
EXTD=YEAR: 2009
EXTT0=
EXTT1=
EXTT2=
EXTT3=
EXTT4=
EXTT5=
EXTT6=
EXTT7=
EXTT8=
EXTT9=
PLAYORDER=
